<!-- Generator: Adobe Illustrator 25.0.0, SVG Export Plug-In  -->
<svg version="1.1" xmlns="http://www.w3.org/2000/svg" xmlns:xlink="http://www.w3.org/1999/xlink" x="0px" y="0px"
	 width="732.82px" height="429.83px" viewBox="0 0 732.82 429.83"
	 style="overflow:visible;enable-background:new 0 0 732.82 429.83;" xml:space="preserve">
<style type="text/css">
	.st0{fill:#32A621;}
	.st1{font-family:'Calibri-Bold';}
	.st2{font-size:333.2104px;}
	.st3{font-size:98.7703px;}
	.st4{letter-spacing:-6.46;}
	.st5{letter-spacing:-9.04;}
</style>
<defs>
</defs>
<g>
	<text transform="matrix(1.0065 0 0 1 591 283.8726)" class="st0 st1 st2">L</text>
	<text transform="matrix(0.774 0 0 1 18 399.5903)" class="st0 st1 st3">QUIMILAT, S.A. DE C.V.</text>
	<polygon points="299,72 314,48 496,146 485,167 	"/>
	<path d="M258,104l5-40l19-32l17-21c0.53-1.63,1.34-2.5,2-3c4.05-3.04,12.71,0.48,17,6c1.69,2.17,2.41,4.29,3,6
		c0.76,2.22,2.07,6.22,1,11c-0.51,2.25-1.38,3.96-2,5l-6,12l-41,67L258,104z"/>
	<polygon points="373.67,110.14 325,307 333,307 378,128 384,114 	"/>
	<polygon points="435,305 391,140 381,140 377.23,131.05 383,112 400.77,123.98 449,305 	"/>
	<polygon points="401,177.5 401,305 397,305 398.2,167 	"/>
	<polygon points="384,140 384,305 377,305 378,128 	"/>
	<polygon points="358.05,307 378,136.67 377.05,195 365.05,307 	"/>
	<polygon points="384,154 395.43,154 396.77,159 384,159 	"/>
	<polygon points="384,179 398,179 397.96,183 384,183 	"/>
	<polygon points="384,200 396.85,200 396.46,204 384,204 	"/>
	<polygon points="384,222 396.71,222 396.88,226 384,226 	"/>
	<polygon points="384,247 397.92,247 397.68,252 384,252 	"/>
	<polygon points="384,270 396.52,270 396.88,274 384,274 	"/>
	<polygon points="384,291 397.12,291 397,295 384,295 	"/>
	<polygon points="260.14,105.57 260,113 264,113 264,150 262,150 262,157 260,157 260,172 262,172 262,194 265,194 265,280 265,284 
		265,289 257,289 257,305 276,305 276,284 270,284 270,194 272,194 272,171 274,171 274,150 270,150 270,115 272,115 	"/>
	<path d="M460,154.27l-0.2,15.67c-2.95-0.63-6.89-0.99-11.1,0c-2.74,0.64-4.32,1.55-5.05,2.02c-1.36,0.87-3.09,1.97-4.04,4.04
		c-0.97,2.12-1.01,5.05-1.01,5.05l0,0c1.01,1.68,2.02,3.36,3.03,5.05l11.11-0.83l29.25-2.19V181l5-3v-5.94l-15.11,1.01l-2.55-14.04
		L460,154.27z"/>
	<polygon points="453,186 466,272 470,268 456.99,184.88 	"/>
	<polygon points="476,183 479,236 487,236 481,183 	"/>
	<path d="M461,302c-0.86-10.48-0.46-18.21,0-23c0.34-3.54,0.74-5.69,2-8c2.21-4.05,4.38-3.63,8-9c1.45-2.15,2.02-3.59,4-5
		c1.8-1.29,3.68-1.78,5-2l-4-3l-1-13l24-15l15-2l19-2v6v7l6,16v12v9l-8,15c-0.45,4.51-1.78,17.85-2,20c-22.67,0-45.33,0-68,0V302z"
		/>
	<polygon points="239,317 257,305 529,305 529,317 	"/>
	<path d="M529,298c0.47,0.39,1.1,0.33,3,0c2.91-0.51,4.36-0.77,5-1c2.03-0.74,2.07-1.3,6-4c3.7-2.54,4.75-2.78,5-4
		c0.11-0.52,0.29-2.31-3-5c-0.11,1.13-0.48,3.19-2,5c-1.51,1.8-3.4,2.46-5,3c-4.93,1.66-7.57,0.11-9,2
		C528.07,295.23,528.14,297.27,529,298z"/>
	<polygon points="538,267 546,267 546,273 536.85,274.04 	"/>
	<path d="M546,266c-0.04-1.73-0.47-2.49,0-4c0.53-1.68,1.69-2.78,3-4c1.15-1.08,1.85-1.73,3-2c0.78-0.18,1.22-0.06,3,0
		c1.29,0.04,2.34,0.02,3,0v-5v-2h14v6c-0.23,0.66-0.42,1.52,0,2c0.67,0.75,2.08-0.35,4,0c1.3,0.24,2.53,1.49,5,4
		c1.49,1.52,1.75,1.99,3,3c1.1,0.89,1.89,1.53,3,2c3.08,1.29,4.95-0.32,7,1c1.08,0.69,1.5,1.74,2,3c0.29,0.73,3.03,7.58-1,11
		c-2.46,2.09-5.58,4.15-9,2h-4v5h-5v5h6l-1,13l8,5l2,2v4h-63v-12h6l11-8c0.07-0.61,0.08-1.28,0-2c-0.35-3.2-3-4.15-4-7
		c-0.35-0.98-0.23-2.32,0-5c0.42-4.86,1.62-8.81,2-10C545.28,268.96,546.06,268.38,546,266z"/>
	<text transform="matrix(1.0065 0 0 1 0 271.8726)" class="st0 st1 st2">Q</text>
	<g>
		<g>
			<path d="M18,322.5c6.33,0,12.67-0.01,19-0.01c17.13-0.01,34.26-0.02,51.4-0.04c25.45-0.02,50.91-0.04,76.36-0.05
				c30.9-0.02,61.81-0.04,92.71-0.07c34.01-0.02,68.03-0.05,102.04-0.07c34.17-0.02,68.34-0.05,102.51-0.07
				c32.02-0.02,64.03-0.05,96.05-0.07c26.93-0.02,53.86-0.04,80.79-0.06c19.46-0.01,38.92-0.03,58.39-0.04
				c9.17-0.01,18.38,0.23,27.55-0.02c0.4-0.01,0.8,0,1.2,0c3.86,0,3.87-6,0-6c-6.33,0-12.67,0.01-19,0.01
				c-17.13,0.01-34.26,0.02-51.4,0.04c-25.45,0.02-50.91,0.04-76.36,0.05c-30.9,0.02-61.81,0.04-92.71,0.07
				c-34.01,0.02-68.03,0.05-102.04,0.07c-34.17,0.02-68.34,0.05-102.51,0.07c-32.02,0.02-64.03,0.05-96.05,0.07
				c-26.93,0.02-53.86,0.04-80.79,0.06c-19.46,0.01-38.92,0.03-58.39,0.04c-9.17,0.01-18.38-0.23-27.55,0.02c-0.4,0.01-0.8,0-1.2,0
				C14.14,316.5,14.13,322.5,18,322.5L18,322.5z"/>
		</g>
	</g>
</g>
</svg>
